name analog
datacolumns 19
datarows 23
range 0.6615 0.6725
endheader
time	ground_force_vx	ground_force_vy	ground_force_vz	ground_force_px	ground_force_py	ground_force_pz	l_ground_force_vx	l_ground_force_vy	l_ground_force_vz	l_ground_force_px	l_ground_force_py	l_ground_force_pz	ground_torque_x	ground_torque_y	ground_torque_z	l_ground_torque_x	l_ground_torque_y	l_ground_torque_z
0.6615	-0.0	-0.0	-0.0	-7.906722545623779	121.1148681640625	-409.37445068359375	8.161392211914062	-121.0238037109375	-370.9279479980469	-0.0	-0.0	-0.0	-0.0	-0.0	-0.0	94453.015625	-19517.640625	5013.392578125
0.662	-0.0	-0.0	-0.0	-8.128090858459473	121.29655456542967	-408.7471923828125	8.414069175720215	-121.3117218017578	-370.3588562011719	-0.0	-0.0	-0.0	-0.0	-0.0	-0.0	94781.4375	-19344.392578125	5085.1181640625
0.6625	-0.0	-0.0	-0.0	-8.811753273010254	120.95999145507812	-409.5577392578125	8.151615142822266	-121.17735290527344	-370.359130859375	-0.0	-0.0	-0.0	-0.0	-0.0	-0.0	94683.640625	-19393.134765625	4928.9130859375
0.663	-0.0	-0.0	-0.0	-8.464845657348633	121.24029541015624	-409.9107971191406	8.782367706298828	-120.86983489990234	-371.07037353515625	-0.0	-0.0	-0.0	-0.0	-0.0	-0.0	94461.7890625	-19327.98828125	5059.0859375
0.6635	-0.0	-0.0	-0.0	-8.610004425048828	121.1053466796875	-410.04193115234375	8.32882308959961	-121.38675689697266	-369.7515869140625	-0.0	-0.0	-0.0	-0.0	-0.0	-0.0	94777.953125	-19114.298828125	5088.3076171875
0.664	-0.0	-0.0	-0.0	-8.686612129211426	121.57386779785156	-409.1958618164063	8.338813781738281	-121.3767318725586	-369.4421691894531	-0.0	-0.0	-0.0	-0.0	-0.0	-0.0	94703.6484375	-19369.9140625	5110.35693359375
0.6645	-0.0	-0.0	-0.0	-8.44176959991455	121.39561462402344	-409.4671020507813	8.115862846374512	-121.33132934570312	-371.148193359375	-0.0	-0.0	-0.0	-0.0	-0.0	-0.0	94568.5	-19489.82421875	5133.08349609375
0.665	-0.0	-0.0	-0.0	-8.352523803710938	121.79744720458984	-409.37744140625	8.227408409118652	-120.93498992919922	-369.6622314453125	-0.0	-0.0	-0.0	-0.0	-0.0	-0.0	94835.8125	-19389.357421875	5111.15234375
0.6655	-0.0	-0.0	-0.0	-8.59751033782959	121.6974868774414	-409.2037353515625	8.38405704498291	-121.12193298339844	-370.7990112304688	-0.0	-0.0	-0.0	-0.0	-0.0	-0.0	94622.9453125	-19380.453125	5044.26318359375
0.666	-0.0	-0.0	-0.0	-8.630884170532227	121.57386779785156	-409.2927856445313	8.018537521362305	-121.27764129638672	-370.1421813964844	-0.0	-0.0	-0.0	-0.0	-0.0	-0.0	94425.328125	-19306.228515625	5110.7958984375
0.6665	-0.0	-0.0	-0.0	-8.262558937072754	121.49627685546876	-411.1903991699219	8.206348419189453	-121.03368377685548	-369.31396484375	-0.0	-0.0	-0.0	-0.0	-0.0	-0.0	94461.4921875	-19179.779296875	5017.98046875
0.667	-0.0	-0.0	-0.0	-8.742630004882812	121.3284912109375	-408.1873779296875	8.006377220153809	-120.9900131225586	-368.7041015625	-0.0	-0.0	-0.0	-0.0	-0.0	-0.0	94441.8671875	-19278.62109375	4984.591796875
0.6675	-0.0	-0.0	-0.0	-8.508443832397461	121.59610748291016	-408.9383239746094	8.028013229370117	-120.71351623535156	-369.6636657714844	-0.0	-0.0	-0.0	-0.0	-0.0	-0.0	94484.6796875	-19437.029296875	4966.0751953125
0.668	-0.0	-0.0	-0.0	-9.177220344543455	121.32870483398438	-409.29107666015625	7.81784725189209	-120.68016815185548	-368.5733337402344	-0.0	-0.0	-0.0	-0.0	-0.0	-0.0	94234.390625	-19107.326171875	5003.01806640625
0.6685	-0.0	-0.0	-0.0	-8.330095291137695	121.40643310546876	-409.02728271484375	8.194652557373047	-120.7798843383789	-369.9698181152344	-0.0	-0.0	-0.0	-0.0	-0.0	-0.0	94117.40625	-19464.14453125	5040.2802734375
0.669	-0.0	-0.0	-0.0	-8.77618408203125	121.16094207763672	-409.1573791503906	7.784430503845215	-120.8020477294922	-369.2283020019531	-0.0	-0.0	-0.0	-0.0	-0.0	-0.0	94250.21875	-19348.994140625	5065.93359375
0.6695	-0.0	-0.0	-0.0	-8.73106861114502	121.48365020751952	-409.0696105957031	7.828595161437988	-120.5044937133789	-369.5780334472656	-0.0	-0.0	-0.0	-0.0	-0.0	-0.0	94143.296875	-19331.828125	4965.890625
0.67	-0.0	-0.0	-0.0	-8.79821491241455	121.24956512451172	-408.89544677734375	8.017338752746582	-120.22850036621094	-369.0981140136719	-0.0	-0.0	-0.0	-0.0	-0.0	-0.0	94078.109375	-19481.642578125	4880.88818359375
0.6705	-0.0	-0.0	-0.0	-9.07758617401123	120.63883209228516	-408.2294006347656	7.883759021759033	-120.15074920654295	-369.7515869140625	-0.0	-0.0	-0.0	-0.0	-0.0	-0.0	94214.8984375	-19372.58984375	4903.1650390625
0.671	-0.0	-0.0	-0.0	-8.909164428710938	120.77169799804688	-408.5821228027344	7.717838287353516	-120.1059341430664	-368.9216613769531	-0.0	-0.0	-0.0	-0.0	-0.0	-0.0	94195.6875	-19454.533203125	5014.451171875
0.6715	-0.0	-0.0	-0.0	-9.010261535644531	120.4586181640625	-408.6292114257813	7.806549072265625	-120.23914337158205	-369.099365234375	-0.0	-0.0	-0.0	-0.0	-0.0	-0.0	94285.5390625	-19391.431640625	4855.02490234375
0.672	-0.0	-0.0	-0.0	-8.742630004882812	120.82708740234376	-409.870361328125	7.339348793029785	-119.78579711914062	-369.8834838867188	-0.0	-0.0	-0.0	-0.0	-0.0	-0.0	94434.2578125	-19671.75390625	5032.185546875
0.6725	-0.0	-0.0	-0.0	-9.27789306640625	120.49493408203124	-409.688720703125	7.475569725036621	-119.6090850830078	-369.6664733886719	-0.0	-0.0	-0.0	-0.0	-0.0	-0.0	94276.2890625	-19475.6328125	4965.72265625
